<svg xmlns="http://www.w3.org/2000/svg" viewBox="0 0 1280 720" role="img" aria-label="WinHelp preview illustration">
  <rect width="1280" height="720" rx="28" fill="#0f172a"/>
  <rect x="80" y="90" width="1120" height="540" rx="24" fill="#111827" stroke="#38bdf8" stroke-width="4"/>
  <rect x="120" y="140" width="280" height="220" rx="18" fill="#1e293b"/>
  <rect x="440" y="140" width="720" height="400" rx="18" fill="#1e293b"/>
  <rect x="160" y="190" width="200" height="18" rx="9" fill="#38bdf8"/>
  <rect x="160" y="230" width="160" height="14" rx="7" fill="#94a3b8"/>
  <rect x="160" y="270" width="180" height="14" rx="7" fill="#94a3b8"/>
  <rect x="480" y="190" width="220" height="18" rx="9" fill="#38bdf8"/>
  <rect x="480" y="235" width="320" height="16" rx="8" fill="#e2e8f0"/>
  <rect x="480" y="270" width="280" height="16" rx="8" fill="#e2e8f0"/>
  <rect x="480" y="330" width="180" height="120" rx="16" fill="#0ea5e9"/>
  <rect x="690" y="330" width="180" height="120" rx="16" fill="#22c55e"/>
  <rect x="900" y="330" width="220" height="120" rx="16" fill="#f59e0b"/>
  <text x="120" y="620" fill="#f8fafc" font-family="Segoe UI, Arial, sans-serif" font-size="42">WinHelp</text>
  <text x="120" y="664" fill="#94a3b8" font-family="Segoe UI, Arial, sans-serif" font-size="24">让 Windows 11 操作更顺手、高效且直观</text>
</svg>